<svg width="26" height="26" viewBox="0 0 26 26" fill="none" xmlns="http://www.w3.org/2000/svg">
<mask id="mask0_104_1391" style="mask-type:alpha" maskUnits="userSpaceOnUse" x="0" y="0" width="26" height="26">
<rect width="26" height="26" fill="#D9D9D9"/>
</mask>
<g mask="url(#mask0_104_1391)">
<path d="M11.9167 18.4167H14.0834V14.0833H18.4167V11.9167H14.0834V7.58334H11.9167V11.9167H7.58335V14.0833H11.9167V18.4167ZM13 23.8333C11.5014 23.8333 10.0931 23.549 8.77502 22.9802C7.45696 22.4115 6.31044 21.6396 5.33544 20.6646C4.36044 19.6896 3.58856 18.5431 3.01981 17.225C2.45106 15.9069 2.16669 14.4986 2.16669 13C2.16669 11.5014 2.45106 10.0931 3.01981 8.775C3.58856 7.45695 4.36044 6.31042 5.33544 5.33542C6.31044 4.36042 7.45696 3.58855 8.77502 3.0198C10.0931 2.45105 11.5014 2.16667 13 2.16667C14.4986 2.16667 15.907 2.45105 17.225 3.0198C18.5431 3.58855 19.6896 4.36042 20.6646 5.33542C21.6396 6.31042 22.4115 7.45695 22.9802 8.775C23.549 10.0931 23.8334 11.5014 23.8334 13C23.8334 14.4986 23.549 15.9069 22.9802 17.225C22.4115 18.5431 21.6396 19.6896 20.6646 20.6646C19.6896 21.6396 18.5431 22.4115 17.225 22.9802C15.907 23.549 14.4986 23.8333 13 23.8333Z" fill="#1964FA"/>
</g>
</svg>
