<svg width="27" height="26" viewBox="0 0 27 26" fill="none" xmlns="http://www.w3.org/2000/svg">
<mask id="mask0_104_1299" style="mask-type:alpha" maskUnits="userSpaceOnUse" x="0" y="0" width="27" height="26">
<rect x="0.5" width="26" height="26" fill="#D9D9D9"/>
</mask>
<g mask="url(#mask0_104_1299)">
<path d="M12.4167 18.4167H14.5833V14.0833H18.9167V11.9167H14.5833V7.58334H12.4167V11.9167H8.08333V14.0833H12.4167V18.4167ZM13.5 23.8333C12.0014 23.8333 10.5931 23.549 9.275 22.9802C7.95694 22.4115 6.81041 21.6396 5.83541 20.6646C4.86041 19.6896 4.08854 18.5431 3.51979 17.225C2.95104 15.9069 2.66666 14.4986 2.66666 13C2.66666 11.5014 2.95104 10.0931 3.51979 8.775C4.08854 7.45695 4.86041 6.31042 5.83541 5.33542C6.81041 4.36042 7.95694 3.58855 9.275 3.0198C10.5931 2.45105 12.0014 2.16667 13.5 2.16667C14.9986 2.16667 16.4069 2.45105 17.725 3.0198C19.0431 3.58855 20.1896 4.36042 21.1646 5.33542C22.1396 6.31042 22.9115 7.45695 23.4802 8.775C24.049 10.0931 24.3333 11.5014 24.3333 13C24.3333 14.4986 24.049 15.9069 23.4802 17.225C22.9115 18.5431 22.1396 19.6896 21.1646 20.6646C20.1896 21.6396 19.0431 22.4115 17.725 22.9802C16.4069 23.549 14.9986 23.8333 13.5 23.8333ZM13.5 21.6667C15.9194 21.6667 17.9687 20.8271 19.6479 19.1479C21.3271 17.4688 22.1667 15.4194 22.1667 13C22.1667 10.5806 21.3271 8.53125 19.6479 6.85209C17.9687 5.17292 15.9194 4.33334 13.5 4.33334C11.0806 4.33334 9.03125 5.17292 7.35208 6.85209C5.67291 8.53125 4.83333 10.5806 4.83333 13C4.83333 15.4194 5.67291 17.4688 7.35208 19.1479C9.03125 20.8271 11.0806 21.6667 13.5 21.6667Z" fill="#F7F9FC"/>
</g>
</svg>
