<svg width="26" height="26" xmlns="http://www.w3.org/2000/svg">
 <mask height="26" width="26" y="0" x="0" maskUnits="userSpaceOnUse" id="mask0_9_1323">
  <rect id="svg_1" fill="#D9D9D9" transform="rotate(90 26,1.776356839400251e-15) " height="26" width="26" x="26"/>
 </mask>

 <g>
  <title>background</title>
  <rect fill="none" id="canvas_background" height="402" width="582" y="-1" x="-1"/>
 </g>
 <g>
  <title>Layer 1</title>
  <g transform="rotate(180 12.999999046325684,12.999964714050293) " id="svg_2" mask="url(#mask0_9_1323)">
   <path id="svg_3" fill="#BDC6DB" d="m2.166675,13l7.58333,-7.58337l1.54372,1.51666l-4.9833,4.98331l7.7729,0l0,2.1667l-7.7729,0l4.9562,4.9833l-1.51662,1.5167l-7.58333,-7.5833zm14.08335,-1.0834l3.25,0l0,2.1667l-3.25,0l0,-2.1667zm5.4166,0l2.1667,0l0,2.1667l-2.1667,0l0,-2.1667z"/>
  </g>
 </g>
</svg>