<svg width="27" height="26" viewBox="0 0 27 26" fill="none" xmlns="http://www.w3.org/2000/svg">
<mask id="mask0_526_41" style="mask-type:alpha" maskUnits="userSpaceOnUse" x="0" y="0" width="27" height="26">
<rect x="0.25" width="26" height="26" fill="#D9D9D9"/>
</mask>
<g mask="url(#mask0_526_41)">
<path d="M19.8042 16.4667L18.2875 14.95C18.7569 14.3722 19.1181 13.7403 19.3708 13.0542C19.6236 12.368 19.75 11.6278 19.75 10.8333C19.75 9.02777 19.1181 7.49305 17.8542 6.22916C16.5903 4.96527 15.0556 4.33332 13.25 4.33332C12.4556 4.33332 11.7153 4.45971 11.0292 4.71249C10.3431 4.96527 9.71111 5.32638 9.13334 5.79582L7.61667 4.27916C8.375 3.62916 9.23264 3.11457 10.1896 2.73541C11.1465 2.35624 12.1667 2.16666 13.25 2.16666C15.6514 2.16666 17.6962 3.01075 19.3844 4.69895C21.0726 6.38714 21.9167 8.43193 21.9167 10.8333C21.9167 11.9167 21.7271 12.9368 21.3479 13.8937C20.9688 14.8507 20.4542 15.7083 19.8042 16.4667ZM15.9583 12.6208L11.4625 8.12499C11.7153 7.96249 11.9951 7.83159 12.3021 7.73228C12.609 7.63298 12.925 7.58332 13.25 7.58332C14.1528 7.58332 14.9201 7.8993 15.5521 8.53124C16.184 9.16318 16.5 9.93055 16.5 10.8333C16.5 11.1583 16.4504 11.4743 16.351 11.7812C16.2517 12.0882 16.1208 12.368 15.9583 12.6208ZM6.75 24.9167V16.575C6.06389 15.7805 5.53125 14.9049 5.15209 13.9479C4.77292 12.991 4.58334 11.9528 4.58334 10.8333C4.58334 10.3097 4.62396 9.80867 4.70521 9.3302C4.78646 8.85173 4.92639 8.37777 5.125 7.90832L1.76667 4.54999L3.28334 3.03332L23.2167 22.9667L21.7 24.4833L19.75 22.5875V24.9167L13.25 22.75L6.75 24.9167ZM13.25 17.3333C13.4486 17.3333 13.6382 17.3243 13.8188 17.3062C13.9993 17.2882 14.1889 17.2611 14.3875 17.225L6.85834 9.69582C6.82223 9.89443 6.79514 10.084 6.77709 10.2646C6.75903 10.4451 6.75 10.6347 6.75 10.8333C6.75 12.6389 7.38195 14.1736 8.64584 15.4375C9.90973 16.7014 11.4444 17.3333 13.25 17.3333ZM8.91667 21.9375L13.25 20.475L17.5833 21.9375V20.4208L16.175 18.9583C15.7056 19.1208 15.2316 19.2517 14.7531 19.351C14.2747 19.4503 13.7736 19.5 13.25 19.5C12.4556 19.5 11.6972 19.4007 10.975 19.2021C10.2528 19.0035 9.56667 18.7236 8.91667 18.3625V21.9375Z" fill="#F7F9FC"/>
</g>
</svg>
