<svg width="22" height="22" viewBox="0 0 22 22" fill="none" xmlns="http://www.w3.org/2000/svg">
<mask id="mask0_114_755" style="mask-type:alpha" maskUnits="userSpaceOnUse" x="0" y="0" width="22" height="22">
<rect width="22" height="22" fill="#D9D9D9"/>
</mask>
<g mask="url(#mask0_114_755)">
<path d="M5.49999 12.8334H12.8333V11H5.49999V12.8334ZM5.49999 10.0834H16.5V8.25004H5.49999V10.0834ZM5.49999 7.33337H16.5V5.50004H5.49999V7.33337ZM1.83333 20.1667V3.66671C1.83333 3.16254 2.01284 2.73094 2.37187 2.37192C2.7309 2.01289 3.16249 1.83337 3.66666 1.83337H18.3333C18.8375 1.83337 19.2691 2.01289 19.6281 2.37192C19.9871 2.73094 20.1667 3.16254 20.1667 3.66671V14.6667C20.1667 15.1709 19.9871 15.6025 19.6281 15.9615C19.2691 16.3205 18.8375 16.5 18.3333 16.5H5.49999L1.83333 20.1667ZM4.72083 14.6667H18.3333V3.66671H3.66666V15.698L4.72083 14.6667Z" fill="#BDC6DB"/>
</g>
</svg>
