<svg width="27" height="26" viewBox="0 0 27 26" fill="none" xmlns="http://www.w3.org/2000/svg">
<mask id="mask0_102_724" style="mask-type:alpha" maskUnits="userSpaceOnUse" x="0" y="0" width="27" height="26">
<rect x="0.5" width="26" height="26" fill="#D9D9D9"/>
</mask>
<g mask="url(#mask0_102_724)">
<path d="M5.91667 20.5833H7.46042L18.05 9.99375L16.5063 8.45L5.91667 19.0396V20.5833ZM3.75 22.75V18.1458L18.05 3.87292C18.2667 3.67431 18.5059 3.52083 18.7677 3.4125C19.0295 3.30417 19.3049 3.25 19.5938 3.25C19.8826 3.25 20.1625 3.30417 20.4333 3.4125C20.7042 3.52083 20.9389 3.68333 21.1375 3.9L22.6271 5.41667C22.8438 5.61528 23.0017 5.85 23.101 6.12083C23.2003 6.39167 23.25 6.6625 23.25 6.93333C23.25 7.22222 23.2003 7.49757 23.101 7.75938C23.0017 8.02118 22.8438 8.26042 22.6271 8.47708L8.35417 22.75H3.75ZM17.2646 9.23542L16.5063 8.45L18.05 9.99375L17.2646 9.23542Z" fill="#BDC6DB"/>
</g>
</svg>
