<svg width="23" height="22" viewBox="0 0 23 22" fill="none" xmlns="http://www.w3.org/2000/svg">
<mask id="mask0_103_938" style="mask-type:alpha" maskUnits="userSpaceOnUse" x="0" y="0" width="23" height="22">
<rect x="0.25" width="22" height="22" fill="#D9D9D9"/>
</mask>
<g mask="url(#mask0_103_938)">
<path d="M11.25 20.1667C9.98195 20.1667 8.79028 19.926 7.675 19.4448C6.55972 18.9635 5.58959 18.3104 4.76459 17.4854C3.93959 16.6604 3.28646 15.6903 2.80521 14.575C2.32396 13.4597 2.08334 12.2681 2.08334 11C2.08334 9.73195 2.32396 8.54028 2.80521 7.425C3.28646 6.30972 3.93959 5.33959 4.76459 4.51459C5.58959 3.68959 6.55972 3.03646 7.675 2.55521C8.79028 2.07396 9.98195 1.83334 11.25 1.83334C12.5181 1.83334 13.7097 2.07396 14.825 2.55521C15.9403 3.03646 16.9104 3.68959 17.7354 4.51459C18.5604 5.33959 19.2135 6.30972 19.6948 7.425C20.176 8.54028 20.4167 9.73195 20.4167 11V12.3292C20.4167 13.2306 20.1073 13.9983 19.4885 14.6323C18.8698 15.2663 18.1097 15.5833 17.2083 15.5833C16.6736 15.5833 16.1694 15.4688 15.6958 15.2396C15.2222 15.0104 14.825 14.6819 14.5042 14.2542C14.0611 14.6972 13.5608 15.0295 13.0031 15.251C12.4455 15.4726 11.8611 15.5833 11.25 15.5833C9.98195 15.5833 8.90104 15.1365 8.00729 14.2427C7.11354 13.349 6.66667 12.2681 6.66667 11C6.66667 9.73195 7.11354 8.65104 8.00729 7.75729C8.90104 6.86354 9.98195 6.41667 11.25 6.41667C12.5181 6.41667 13.599 6.86354 14.4927 7.75729C15.3865 8.65104 15.8333 9.73195 15.8333 11V12.3292C15.8333 12.7264 15.9632 13.0625 16.2229 13.3375C16.4826 13.6125 16.8111 13.75 17.2083 13.75C17.6056 13.75 17.934 13.6125 18.1938 13.3375C18.4535 13.0625 18.5833 12.7264 18.5833 12.3292V11C18.5833 8.95278 17.8729 7.21875 16.4521 5.79792C15.0313 4.37709 13.2972 3.66667 11.25 3.66667C9.20278 3.66667 7.46875 4.37709 6.04792 5.79792C4.62709 7.21875 3.91667 8.95278 3.91667 11C3.91667 13.0472 4.62709 14.7813 6.04792 16.2021C7.46875 17.6229 9.20278 18.3333 11.25 18.3333H15.8333V20.1667H11.25ZM11.25 13.75C12.0139 13.75 12.6632 13.4826 13.1979 12.9479C13.7326 12.4132 14 11.7639 14 11C14 10.2361 13.7326 9.58681 13.1979 9.05209C12.6632 8.51736 12.0139 8.25 11.25 8.25C10.4861 8.25 9.83681 8.51736 9.30209 9.05209C8.76736 9.58681 8.5 10.2361 8.5 11C8.5 11.7639 8.76736 12.4132 9.30209 12.9479C9.83681 13.4826 10.4861 13.75 11.25 13.75Z" fill="#1964FA"/>
</g>
</svg>
