<svg width="26" height="26" viewBox="0 0 26 26" fill="none" xmlns="http://www.w3.org/2000/svg">
<mask id="mask0_9_1316" style="mask-type:alpha" maskUnits="userSpaceOnUse" x="0" y="0" width="26" height="26">
<rect width="26" height="26" fill="#D9D9D9"/>
</mask>
<g mask="url(#mask0_9_1316)">
<path d="M12.9459 19.5C13.325 19.5 13.6455 19.3691 13.9073 19.1073C14.1691 18.8455 14.3 18.525 14.3 18.1459C14.3 17.7667 14.1691 17.4462 13.9073 17.1844C13.6455 16.9226 13.325 16.7917 12.9459 16.7917C12.5667 16.7917 12.2462 16.9226 11.9844 17.1844C11.7226 17.4462 11.5917 17.7667 11.5917 18.1459C11.5917 18.525 11.7226 18.8455 11.9844 19.1073C12.2462 19.3691 12.5667 19.5 12.9459 19.5ZM11.9709 15.3292H13.975C13.975 14.7334 14.0427 14.2639 14.1781 13.9209C14.3136 13.5778 14.6972 13.1084 15.3292 12.5125C15.7986 12.0431 16.1688 11.5962 16.4396 11.1719C16.7104 10.7476 16.8459 10.2375 16.8459 9.64169C16.8459 8.63058 16.4757 7.85419 15.7354 7.31252C14.9952 6.77085 14.1195 6.50002 13.1084 6.50002C12.0792 6.50002 11.2441 6.77085 10.6031 7.31252C9.96217 7.85419 9.5153 8.50419 9.26252 9.26252L11.05 9.96669C11.1403 9.64169 11.3434 9.2896 11.6594 8.91044C11.9754 8.53127 12.4584 8.34169 13.1084 8.34169C13.6861 8.34169 14.1195 8.49967 14.4084 8.81565C14.6972 9.13162 14.8417 9.47919 14.8417 9.85835C14.8417 10.2195 14.7334 10.558 14.5167 10.874C14.3 11.19 14.0292 11.4834 13.7042 11.7542C12.9097 12.4584 12.4222 12.991 12.2417 13.3521C12.0611 13.7132 11.9709 14.3722 11.9709 15.3292ZM13 23.8334C11.5014 23.8334 10.0931 23.549 8.77502 22.9802C7.45696 22.4115 6.31044 21.6396 5.33544 20.6646C4.36044 19.6896 3.58856 18.5431 3.01981 17.225C2.45106 15.907 2.16669 14.4986 2.16669 13C2.16669 11.5014 2.45106 10.0931 3.01981 8.77502C3.58856 7.45696 4.36044 6.31044 5.33544 5.33544C6.31044 4.36044 7.45696 3.58856 8.77502 3.01981C10.0931 2.45106 11.5014 2.16669 13 2.16669C14.4986 2.16669 15.907 2.45106 17.225 3.01981C18.5431 3.58856 19.6896 4.36044 20.6646 5.33544C21.6396 6.31044 22.4115 7.45696 22.9802 8.77502C23.549 10.0931 23.8334 11.5014 23.8334 13C23.8334 14.4986 23.549 15.907 22.9802 17.225C22.4115 18.5431 21.6396 19.6896 20.6646 20.6646C19.6896 21.6396 18.5431 22.4115 17.225 22.9802C15.907 23.549 14.4986 23.8334 13 23.8334ZM13 21.6667C15.4195 21.6667 17.4688 20.8271 19.1479 19.1479C20.8271 17.4688 21.6667 15.4195 21.6667 13C21.6667 10.5806 20.8271 8.53127 19.1479 6.8521C17.4688 5.17294 15.4195 4.33335 13 4.33335C10.5806 4.33335 8.53127 5.17294 6.8521 6.8521C5.17294 8.53127 4.33335 10.5806 4.33335 13C4.33335 15.4195 5.17294 17.4688 6.8521 19.1479C8.53127 20.8271 10.5806 21.6667 13 21.6667Z" fill="#BDC6DB"/>
</g>
</svg>
