<svg width="18" height="18" viewBox="0 0 18 18" fill="none" xmlns="http://www.w3.org/2000/svg">
<mask id="mask0_34_1896" style="mask-type:alpha" maskUnits="userSpaceOnUse" x="0" y="0" width="18" height="18">
<rect width="18" height="18" fill="#D9D9D9"/>
</mask>
<g mask="url(#mask0_34_1896)">
<path d="M8.99998 16.5C7.06248 16.5 5.38123 15.8563 3.95623 14.5688C2.53123 13.2813 1.72498 11.675 1.53748 9.75H3.05623C3.24373 11.2625 3.9031 12.5156 5.03435 13.5094C6.1656 14.5031 7.48748 15 8.99998 15C10.675 15 12.0937 14.4188 13.2562 13.2563C14.4187 12.0938 15 10.675 15 9C15 7.325 14.4187 5.90625 13.2562 4.74375C12.0937 3.58125 10.675 3 8.99998 3C7.92498 3 6.9281 3.26563 6.00935 3.79688C5.0906 4.32813 4.36248 5.0625 3.82498 6H5.99998V7.5H1.64998C2.01248 5.75 2.88123 4.3125 4.25623 3.1875C5.63123 2.0625 7.21248 1.5 8.99998 1.5C10.0375 1.5 11.0125 1.69688 11.925 2.09063C12.8375 2.48438 13.6312 3.01875 14.3062 3.69375C14.9812 4.36875 15.5156 5.1625 15.9094 6.075C16.3031 6.9875 16.5 7.9625 16.5 9C16.5 10.0375 16.3031 11.0125 15.9094 11.925C15.5156 12.8375 14.9812 13.6313 14.3062 14.3063C13.6312 14.9813 12.8375 15.5156 11.925 15.9094C11.0125 16.3031 10.0375 16.5 8.99998 16.5ZM11.1 12.15L8.24998 9.3V5.25H9.74998V8.7L12.15 11.1L11.1 12.15Z" fill="#BDC6DB"/>
</g>
</svg>
