<svg width="26" height="26" viewBox="0 0 26 26" fill="none" xmlns="http://www.w3.org/2000/svg">
<path fill-rule="evenodd" clip-rule="evenodd" d="M15.8188 10.1812C15.8418 9.96135 15.8537 9.73815 15.8537 9.5122C15.8537 8.63607 15.676 7.80144 15.3547 7.04237C15.7263 6.99827 16.1044 6.97558 16.4878 6.97558C17.2684 6.97558 18.027 7.06961 18.753 7.24695C18.9304 7.97293 19.0244 8.73158 19.0244 9.5122C19.0244 9.89561 19.0017 10.2737 18.9576 10.6453C18.1985 10.324 17.3639 10.1463 16.4878 10.1463C16.2618 10.1463 16.0386 10.1581 15.8188 10.1812ZM12.2249 15.2458C13.5477 14.6189 14.6189 13.5477 15.2458 12.2249C15.6399 12.1102 16.0567 12.0488 16.4878 12.0488C17.2244 12.0488 17.919 12.2282 18.5305 12.5456C17.5845 15.359 15.359 17.5845 12.5456 18.5305C12.2282 17.919 12.0488 17.2244 12.0488 16.4878C12.0488 16.0567 12.1102 15.6399 12.2249 15.2458ZM10.1812 15.8188C9.96135 15.8418 9.73815 15.8537 9.5122 15.8537C8.63608 15.8537 7.80147 15.676 7.04241 15.3547C6.99831 15.7263 6.97563 16.1044 6.97563 16.4878C6.97563 17.2684 7.06966 18.027 7.24701 18.753C7.97297 18.9304 8.7316 19.0244 9.5122 19.0244C9.89561 19.0244 10.2737 19.0017 10.6453 18.9576C10.324 18.1985 10.1463 17.3639 10.1463 16.4878C10.1463 16.2618 10.1581 16.0386 10.1812 15.8188ZM3.17073 9.5122C3.17073 11.3945 3.9908 13.0852 5.29313 14.2466C5.14886 14.9713 5.07319 15.7207 5.07319 16.4878C5.07319 16.9927 5.10597 17.4899 5.16952 17.9775C2.09988 16.3996 0 13.2011 0 9.5122C0 4.25876 4.25876 0 9.5122 0C13.2011 0 16.3996 2.09986 17.9775 5.16946C17.4899 5.10592 16.9927 5.07314 16.4878 5.07314C15.7207 5.07314 14.9713 5.14881 14.2466 5.2931C13.0852 3.99078 11.3944 3.17073 9.5122 3.17073C6.0099 3.17073 3.17073 6.0099 3.17073 9.5122Z" fill="#BDC6DB"/>
<circle cx="16.4878" cy="16.4878" r="7.92683" stroke="#0C1D3D" stroke-width="3.17073"/>
</svg>
