<svg width="23" height="22" viewBox="0 0 23 22" fill="none" xmlns="http://www.w3.org/2000/svg">
<mask id="mask0_104_1371" style="mask-type:alpha" maskUnits="userSpaceOnUse" x="0" y="0" width="23" height="22">
<rect x="0.5" width="22" height="22" fill="#D9D9D9"/>
</mask>
<g mask="url(#mask0_104_1371)">
<path d="M10.5833 15.5833H12.4167V10.0833H10.5833V15.5833ZM11.5 8.25001C11.7597 8.25001 11.9774 8.16216 12.1531 7.98647C12.3288 7.81077 12.4167 7.59307 12.4167 7.33334C12.4167 7.07362 12.3288 6.85591 12.1531 6.68022C11.9774 6.50452 11.7597 6.41668 11.5 6.41668C11.2403 6.41668 11.0226 6.50452 10.8469 6.68022C10.6712 6.85591 10.5833 7.07362 10.5833 7.33334C10.5833 7.59307 10.6712 7.81077 10.8469 7.98647C11.0226 8.16216 11.2403 8.25001 11.5 8.25001ZM11.5 20.1667C10.2319 20.1667 9.04027 19.9261 7.92499 19.4448C6.80972 18.9636 5.83958 18.3104 5.01458 17.4854C4.18958 16.6604 3.53645 15.6903 3.0552 14.575C2.57395 13.4597 2.33333 12.2681 2.33333 11C2.33333 9.73195 2.57395 8.54029 3.0552 7.42501C3.53645 6.30973 4.18958 5.33959 5.01458 4.51459C5.83958 3.68959 6.80972 3.03647 7.92499 2.55522C9.04027 2.07397 10.2319 1.83334 11.5 1.83334C12.7681 1.83334 13.9597 2.07397 15.075 2.55522C16.1903 3.03647 17.1604 3.68959 17.9854 4.51459C18.8104 5.33959 19.4635 6.30973 19.9448 7.42501C20.426 8.54029 20.6667 9.73195 20.6667 11C20.6667 12.2681 20.426 13.4597 19.9448 14.575C19.4635 15.6903 18.8104 16.6604 17.9854 17.4854C17.1604 18.3104 16.1903 18.9636 15.075 19.4448C13.9597 19.9261 12.7681 20.1667 11.5 20.1667ZM11.5 18.3333C13.5472 18.3333 15.2812 17.6229 16.7021 16.2021C18.1229 14.7813 18.8333 13.0472 18.8333 11C18.8333 8.95279 18.1229 7.21876 16.7021 5.79793C15.2812 4.37709 13.5472 3.66668 11.5 3.66668C9.45277 3.66668 7.71875 4.37709 6.29791 5.79793C4.87708 7.21876 4.16666 8.95279 4.16666 11C4.16666 13.0472 4.87708 14.7813 6.29791 16.2021C7.71875 17.6229 9.45277 18.3333 11.5 18.3333Z" fill="#BDC6DB"/>
</g>
</svg>
