<svg width="62" height="62" viewBox="0 0 62 62" fill="none" xmlns="http://www.w3.org/2000/svg">
<path d="M17.4358 53.2047L4.52081 45.8027V16.1974L17.4357 8.79431L30.3531 1.39026L43.2725 8.79431L56.1875 16.1974V45.8027L43.2726 53.2047L30.3531 60.6098L17.4358 53.2047ZM30.6742 7.16278L29.7071 6.60858V7.35443L19.8822 12.9861L9.73251 18.8037L9.40783 18.9899V19.3641V42.6349V43.0092L9.73251 43.1952L19.8822 49.013L30.0319 54.8306L30.353 55.0147L30.6742 54.8306L40.8249 49.013L50.9747 43.1952L51.2993 43.0092V42.6349V19.3585V18.9843L50.9747 18.7982L40.825 12.9805L30.6742 7.16278Z" fill="#151515"/>
<path d="M40.8249 49.013L30.6742 54.8306L30.353 55.0147L30.0319 54.8306L19.8822 49.013L9.73251 43.1952L9.40783 43.0092V42.6349V19.3641V18.9899L9.73251 18.8037L19.8822 12.9861L29.7071 7.35443V6.60858L30.6742 7.16278L40.825 12.9805L50.9747 18.7982L51.2993 18.9843V19.3585V42.6349V43.0092L50.9747 43.1952L40.8249 49.013ZM40.8249 49.013L40.5038 48.4526M17.4358 53.2047L4.52081 45.8027V16.1974L17.4357 8.79431L30.3531 1.39026L43.2725 8.79431L56.1875 16.1974V45.8027L43.2726 53.2047L30.3531 60.6098L17.4358 53.2047Z" stroke="#151515" stroke-width="0.775"/>
<path d="M39.351 29.4954H39.9968V28.8495V20.0031H45.511V43.7571H39.9968V34.9283V34.2824H39.351H31V29.4964L39.351 29.4954Z" fill="#151515" stroke="#151515" stroke-width="0.775"/>
<path d="M21.9448 25.4946V24.8487H21.2989H14.0797V20.0031H35.3251V24.8487H28.1047H27.4589V25.4946V43.7582H21.9448V25.4946Z" fill="#151515" stroke="#151515" stroke-width="0.775"/>
</svg>
