<svg width="26" height="26" viewBox="0 0 26 26" fill="none" xmlns="http://www.w3.org/2000/svg">
<mask id="mask0_104_1223" style="mask-type:alpha" maskUnits="userSpaceOnUse" x="0" y="0" width="26" height="26">
<rect width="26" height="26" fill="#D9D9D9"/>
</mask>
<g mask="url(#mask0_104_1223)">
<path d="M7.58331 21.6666V9.72289C7.58331 9.12706 7.79997 8.6215 8.23331 8.20622C8.66664 7.79095 9.18122 7.58331 9.77706 7.58331H21.6666C22.2625 7.58331 22.7725 7.79546 23.1968 8.21977C23.6212 8.64407 23.8333 9.15414 23.8333 9.74997V18.4166L18.4166 23.8333H9.74997C9.15414 23.8333 8.64407 23.6212 8.21977 23.1968C7.79546 22.7725 7.58331 22.2625 7.58331 21.6666ZM2.19372 6.77081C2.08539 6.17497 2.20275 5.63782 2.54581 5.15935C2.88886 4.68088 3.35831 4.38747 3.95414 4.27914L15.7083 2.19372C16.3041 2.08539 16.8413 2.20275 17.3198 2.54581C17.7982 2.88886 18.0916 3.35831 18.2 3.95414L18.4708 5.41664H9.74997C8.55831 5.41664 7.53817 5.84095 6.68956 6.68956C5.84095 7.53817 5.41664 8.55831 5.41664 9.74997V20.0958C5.12775 19.9333 4.87949 19.7166 4.67185 19.4458C4.46421 19.175 4.33331 18.868 4.27914 18.525L2.19372 6.77081ZM21.6666 17.3333H17.3333V21.6666L21.6666 17.3333Z" fill="#BDC6DB"/>
</g>
</svg>
