<svg width="27" height="27" viewBox="0 0 27 27" fill="none" xmlns="http://www.w3.org/2000/svg">
<mask id="mask0_526_34" style="mask-type:alpha" maskUnits="userSpaceOnUse" x="0" y="0" width="27" height="27">
<rect x="0.0138092" y="0.599182" width="26" height="26" fill="#D9D9D9"/>
</mask>
<g mask="url(#mask0_526_34)">
<path d="M10.4951 15.4408L11.443 12.3533L8.95131 10.3492H12.0388L13.0138 7.31584L13.9888 10.3492H17.0763L14.5576 12.3533L15.5055 15.4408L13.0138 13.5179L10.4951 15.4408ZM6.51381 25.5158V17.1471C5.8277 16.3888 5.29506 15.5221 4.9159 14.5471C4.53673 13.5721 4.34715 12.5339 4.34715 11.4325C4.34715 9.01306 5.18673 6.96376 6.8659 5.28459C8.54506 3.60542 10.5944 2.76584 13.0138 2.76584C15.4333 2.76584 17.4826 3.60542 19.1617 5.28459C20.8409 6.96376 21.6805 9.01306 21.6805 11.4325C21.6805 12.5339 21.4909 13.5721 21.1117 14.5471C20.7326 15.5221 20.1999 16.3888 19.5138 17.1471V25.5158L13.0138 23.3492L6.51381 25.5158ZM13.0138 17.9325C14.8194 17.9325 16.3541 17.3006 17.618 16.0367C18.8819 14.7728 19.5138 13.2381 19.5138 11.4325C19.5138 9.62695 18.8819 8.09223 17.618 6.82834C16.3541 5.56445 14.8194 4.93251 13.0138 4.93251C11.2083 4.93251 9.67353 5.56445 8.40965 6.82834C7.14576 8.09223 6.51381 9.62695 6.51381 11.4325C6.51381 13.2381 7.14576 14.7728 8.40965 16.0367C9.67353 17.3006 11.2083 17.9325 13.0138 17.9325ZM8.68048 22.2929L13.0138 21.1825L17.3471 22.2929V18.9346C16.7152 19.2957 16.0336 19.5801 15.3024 19.7877C14.5711 19.9954 13.8083 20.0992 13.0138 20.0992C12.2194 20.0992 11.4565 19.9954 10.7253 19.7877C9.99402 19.5801 9.31242 19.2957 8.68048 18.9346V22.2929Z" fill="#F7F9FC"/>
</g>
</svg>
