<svg width="26" height="26" viewBox="0 0 26 26" fill="none" xmlns="http://www.w3.org/2000/svg">
<mask id="mask0_558_7" style="mask-type:alpha" maskUnits="userSpaceOnUse" x="0" y="0" width="26" height="26">
<rect width="26" height="26" fill="#D9D9D9"/>
</mask>
<g mask="url(#mask0_558_7)">
<path d="M9.31665 24.375L7.25831 20.9083L3.35831 20.0417L3.73748 16.0333L1.08331 13L3.73748 9.96667L3.35831 5.95833L7.25831 5.09167L9.31665 1.625L13 3.19583L16.6833 1.625L18.7416 5.09167L22.6416 5.95833L22.2625 9.96667L24.9166 13L22.2625 16.0333L22.6416 20.0417L18.7416 20.9083L16.6833 24.375L13 22.8042L9.31665 24.375ZM10.2375 21.6125L13 20.4208L15.8166 21.6125L17.3333 19.0125L20.3125 18.3083L20.0416 15.275L22.0458 13L20.0416 10.6708L20.3125 7.6375L17.3333 6.9875L15.7625 4.3875L13 5.57917L10.1833 4.3875L8.66665 6.9875L5.68748 7.6375L5.95831 10.6708L3.95415 13L5.95831 15.275L5.68748 18.3625L8.66665 19.0125L10.2375 21.6125ZM11.8625 16.8458L17.9833 10.725L16.4666 9.15417L11.8625 13.7583L9.53331 11.4833L8.01665 13L11.8625 16.8458Z" fill="#BDC6DB"/>
</g>
</svg>
