<svg width="26" height="26" viewBox="0 0 26 26" fill="none" xmlns="http://www.w3.org/2000/svg">
<mask id="mask0_558_14" style="mask-type:alpha" maskUnits="userSpaceOnUse" x="0" y="0" width="26" height="26">
<rect width="26" height="26" rx="1.6" fill="#D9D9D9"/>
</mask>
<g mask="url(#mask0_558_14)">
<path d="M10.605 23.8256C9.86747 24.1401 9.01097 23.8601 8.60161 23.1707L7.61159 21.5033C7.38618 21.1236 7.01391 20.854 6.58291 20.7582L4.73716 20.3481C3.94946 20.173 3.41537 19.4388 3.49136 18.6355L3.67263 16.7192C3.71405 16.2814 3.57345 15.8458 3.28387 15.5149L2.00525 14.0536C1.47741 13.4504 1.47741 12.5496 2.00525 11.9464L3.28387 10.4851C3.57345 10.1542 3.71405 9.71863 3.67263 9.28083L3.49136 7.36451C3.41537 6.56118 3.94946 5.82697 4.73716 5.65193L6.58291 5.24176C7.01391 5.14599 7.38618 4.87636 7.61159 4.49673L8.60161 2.82933C9.01097 2.13987 9.86747 1.8599 10.605 2.17444L12.3724 2.92816C12.7733 3.09916 13.2267 3.09916 13.6277 2.92816L15.395 2.17444C16.1326 1.8599 16.989 2.13987 17.3984 2.82933L18.3884 4.49673C18.6138 4.87636 18.9861 5.14598 19.4171 5.24176L21.2629 5.65193C22.0506 5.82697 22.5847 6.56118 22.5087 7.36451L22.3274 9.28083C22.286 9.71863 22.4266 10.1542 22.7162 10.4851L23.9948 11.9464C24.5226 12.5496 24.5226 13.4504 23.9948 14.0536L22.7162 15.5149C22.4266 15.8458 22.286 16.2814 22.3274 16.7192L22.5087 18.6355C22.5847 19.4388 22.0506 20.173 21.2629 20.3481L19.4171 20.7582C18.9861 20.854 18.6138 21.1236 18.3884 21.5033L17.3984 23.1707C16.989 23.8601 16.1326 24.1401 15.395 23.8256L13.6277 23.0718C13.2267 22.9008 12.7733 22.9008 12.3724 23.0718L10.605 23.8256ZM10.7311 15.7145C11.356 16.3393 12.369 16.3393 12.9939 15.7145L17.2249 11.4835C17.6459 11.0624 17.6519 10.3817 17.2383 9.95336V9.95336C16.8144 9.51426 16.1127 9.50811 15.6811 9.9397L12.9806 12.6402C12.361 13.2598 11.3582 13.2657 10.7313 12.6534L10.296 12.2283C9.87337 11.8155 9.19725 11.8194 8.77947 12.2372V12.2372C8.35819 12.6585 8.35819 13.3415 8.77947 13.7628L10.7311 15.7145Z" fill="#1964FA"/>
</g>
</svg>
