<svg width="200" height="200" viewBox="0 0 200 200" fill="none" xmlns="http://www.w3.org/2000/svg">
<rect width="200" height="200" fill="#F7F9FC"/>
<mask id="mask0_104_1263" style="mask-type:alpha" maskUnits="userSpaceOnUse" x="76" y="76" width="48" height="48">
<rect x="76" y="76" width="48" height="48" fill="#D9D9D9"/>
</mask>
<g mask="url(#mask0_104_1263)">
<path d="M86 118C84.9 118 83.9583 117.608 83.175 116.825C82.3917 116.042 82 115.1 82 114V86C82 84.9 82.3917 83.9583 83.175 83.175C83.9583 82.3917 84.9 82 86 82H102V86H86V114H114V98H118V114C118 115.1 117.608 116.042 116.825 116.825C116.042 117.608 115.1 118 114 118H86ZM88 110H112L104.5 100L98.5 108L94 102L88 110ZM110 94V90H106V86H110V82H114V86H118V90H114V94H110Z" fill="#BDC6DB"/>
</g>
</svg>
